<svg version="1.1" id="Layer_1" xmlns="http://www.w3.org/2000/svg" xmlns:xlink="http://www.w3.org/1999/xlink" x="0px" y="0px"
	 width="100%" viewBox="0 0 239 288" enable-background="new 0 0 239 288" xml:space="preserve">
<path fill="#FEFFFF" opacity="1.000000" stroke="none" 
	d="
M123.000000,289.000000 
	C82.000000,289.000000 41.500000,289.000000 1.000000,289.000000 
	C1.000000,193.000000 1.000000,97.000000 1.000000,1.000000 
	C80.666664,1.000000 160.333328,1.000000 240.000000,1.000000 
	C240.000000,97.000000 240.000000,193.000000 240.000000,289.000000 
	C201.166672,289.000000 162.333328,289.000000 123.000000,289.000000 
M70.925072,158.928802 
	C70.925072,158.928802 70.912910,158.838943 70.356728,159.001877 
	C70.144402,159.316025 69.932076,159.630157 69.368622,160.111023 
	C69.150116,160.273193 69.012199,160.487259 68.346352,161.029205 
	C67.206741,162.337463 66.067139,163.645706 64.987663,164.994980 
	C64.987663,164.994980 64.972252,164.923828 64.439850,165.056931 
	C64.269890,165.365189 64.099930,165.673431 63.994720,165.994736 
	C63.994720,165.994736 63.981003,165.930130 63.445034,166.055466 
	C63.274502,166.364120 63.103973,166.672760 62.996048,166.996170 
	C62.996048,166.996170 62.980247,166.933807 62.443550,167.098953 
	C62.249710,167.410034 62.055874,167.721115 61.488789,168.208252 
	C61.254711,168.376755 61.103645,168.601151 60.465244,169.116089 
	C59.978542,169.753937 59.491840,170.391785 59.010002,171.009720 
	C59.010002,171.009720 59.029865,171.004593 58.491150,171.211441 
	C58.195793,171.685486 57.900436,172.159531 58.013206,172.857040 
	C58.013206,172.857040 57.595112,172.654678 57.132999,172.812592 
	C56.837067,173.005157 56.677101,173.277573 56.837379,173.860321 
	C56.837379,173.860321 56.614475,173.666962 56.139297,173.835693 
	C55.988373,174.124405 55.837452,174.413101 56.011177,174.969482 
	C56.011177,174.969482 55.691074,174.693756 55.186874,174.833466 
	C55.022957,175.127106 54.859039,175.420731 54.962013,175.818451 
	C54.962013,175.818451 54.716507,175.670837 54.164982,175.800079 
	C53.829185,176.239685 53.493389,176.679291 53.049263,177.050003 
	C53.049263,177.050003 53.120163,177.157028 52.511803,177.389755 
	C51.258945,178.850098 50.006092,180.310440 48.970448,181.995789 
	C48.970448,181.995789 48.769928,181.756058 48.193485,181.949768 
	C47.739422,182.593750 47.285358,183.237732 46.872963,183.960632 
	C46.872963,183.960632 46.951962,183.919113 46.419533,184.032745 
	C46.258286,184.339478 46.097038,184.646194 46.002586,184.992584 
	C46.002586,184.992584 45.950581,184.934525 45.412964,185.022415 
	C45.264675,185.334152 45.116386,185.645889 44.987297,185.990051 
	C44.987297,185.990051 44.950039,185.984436 44.361755,186.322968 
	C44.310131,187.209869 44.258503,188.096786 44.038551,189.909454 
	C44.038551,204.094894 44.038551,218.280350 44.038551,233.631195 
	C45.738102,231.766434 46.503490,230.926636 47.833958,229.765076 
	C60.330143,216.829803 72.871193,203.937500 85.310829,190.948059 
	C99.925957,175.687012 114.453018,160.341599 129.004150,145.004272 
	C129.004150,145.004272 129.032715,145.018250 129.663605,144.798996 
	C136.134918,137.889328 142.606232,130.979660 148.998856,124.002998 
	C148.998856,124.002998 149.070419,124.078278 149.690811,123.876717 
	C151.144379,122.297356 152.597961,120.718002 154.646454,118.822189 
	C164.948349,108.162033 175.275452,97.525955 185.514938,86.806175 
	C186.593140,85.677422 187.823608,84.068321 187.850143,82.660698 
	C188.046951,72.224579 187.956802,61.783039 187.956802,51.368782 
	C139.456558,51.368782 92.076286,51.368782 44.251091,51.368782 
	C44.251091,53.575764 44.245880,55.382179 44.251888,57.188549 
	C44.322823,78.514084 44.395115,99.839607 44.468643,121.165138 
	C44.472088,122.164604 44.189472,123.306992 44.578922,124.126869 
	C45.053967,125.126938 46.087296,126.578529 46.900269,126.592331 
	C56.851357,126.761269 66.806313,126.702248 77.487091,126.702248 
	C77.487091,123.776512 77.456459,121.331520 77.492302,118.887497 
	C77.662971,107.249397 77.851715,95.611557 78.961281,84.051247 
	C99.287506,84.005890 119.613731,83.960533 140.537979,84.228836 
	C139.805176,85.522987 139.257248,86.976555 138.304733,88.081245 
	C135.506271,91.326706 132.547119,94.433594 129.703110,97.708092 
	C129.703110,97.708092 129.590057,97.655228 128.992981,97.897034 
	C117.608788,109.890427 106.224594,121.883820 94.364311,134.110519 
	C93.896652,134.631241 93.428993,135.151978 92.438591,135.949615 
	C92.256477,136.283844 92.074364,136.618088 91.972298,136.966721 
	C91.972298,136.966721 91.945038,136.890076 91.407143,137.021057 
	C91.243355,137.337494 91.079567,137.653946 90.986816,137.985779 
	C90.986816,137.985779 90.966522,137.915985 90.439964,138.057358 
	C90.266647,138.362335 90.093323,138.667313 89.988632,138.989304 
	C89.988632,138.989304 89.972664,138.920425 89.436775,139.049942 
	C89.263901,139.357193 89.091026,139.664429 88.988174,139.987122 
	C88.988174,139.987122 88.968933,139.918045 88.440956,140.056198 
	C88.272491,140.365768 88.104027,140.675339 87.997284,140.997864 
	C87.997284,140.997864 87.984444,140.936111 87.455505,141.072006 
	C87.285172,141.378296 87.114838,141.684601 87.001930,142.000458 
	C87.001930,142.000458 86.988937,141.943710 86.466568,142.084244 
	C86.294174,142.386292 86.121780,142.688339 86.002060,143.002365 
	C86.002060,143.002365 85.989868,142.949753 85.470856,143.097183 
	C85.302979,143.400543 85.135101,143.703903 85.010155,144.007401 
	C85.010155,144.007401 85.004501,143.964828 84.505219,144.137314 
	C84.327881,144.429977 84.150536,144.722641 84.010567,145.013596 
	C84.010567,145.013596 84.012833,144.976273 83.395523,145.176590 
	C82.487114,146.316681 81.578705,147.456772 80.689377,148.647552 
	C80.689377,148.647552 80.668022,148.697342 80.163002,148.832275 
	C80.010345,149.134888 79.857681,149.437485 79.800316,149.900284 
	C79.800316,149.900284 79.769516,149.716461 79.191399,149.871582 
	C78.953461,150.185425 78.715523,150.499268 78.211487,150.901382 
	C78.211487,150.901382 78.056213,151.134811 77.519676,151.317047 
	C77.242455,151.793030 76.965240,152.268997 76.861572,152.854126 
	C76.861572,152.854126 76.735298,152.692596 76.211678,152.834229 
	C75.887634,153.240051 75.563583,153.645874 74.964256,154.268799 
	C74.964256,154.268799 74.826889,154.591370 74.303642,154.848160 
	C74.125671,155.181976 73.947708,155.515808 73.884377,155.828339 
	C73.884377,155.828339 73.786301,155.765274 73.204193,155.945984 
	C72.741646,156.584702 72.279099,157.223434 71.897202,157.930481 
	C71.897202,157.930481 71.891624,157.824936 71.363968,157.981033 
	C71.188194,158.290268 71.012428,158.599487 70.925072,158.928802 
M187.975372,229.133087 
	C187.980377,217.810898 187.819199,206.484894 188.079880,195.168594 
	C188.171997,191.168808 187.039841,188.337189 184.067947,185.637634 
	C175.690369,178.027847 167.580276,170.123901 159.352081,162.349304 
	C154.084213,157.371841 148.793884,152.418137 143.168716,147.129486 
	C135.417862,155.336990 128.068665,163.119171 120.565491,171.064407 
	C143.049286,192.399857 165.023697,213.251923 187.968109,235.024460 
	C187.968109,232.287338 187.968109,231.153595 187.975372,229.133087 
z"/>
<path fill="#2F7FFC" opacity="1.000000" stroke="none" 
	d="
M78.056213,151.134811 
	C78.056213,151.134811 78.211487,150.901382 78.671661,150.831329 
	C79.344391,150.413010 79.556953,150.064728 79.769516,149.716461 
	C79.769516,149.716461 79.800316,149.900284 80.046555,149.803848 
	C80.417870,149.370728 80.542946,149.034027 80.668022,148.697342 
	C80.668022,148.697342 80.689377,148.647552 81.053848,148.732849 
	C82.283157,147.537537 83.147995,146.256897 84.012833,144.976273 
	C84.012833,144.976273 84.010567,145.013596 84.247726,144.937042 
	C84.658096,144.561920 84.831299,144.263382 85.004501,143.964828 
	C85.004501,143.964828 85.010155,144.007401 85.241516,143.924652 
	C85.645203,143.544525 85.817535,143.247147 85.989868,142.949753 
	C85.989868,142.949753 86.002060,143.002365 86.233871,142.922394 
	C86.640099,142.542862 86.814522,142.243286 86.988937,141.943710 
	C86.988937,141.943710 87.001930,142.000458 87.228699,141.915512 
	C87.631798,141.532410 87.808121,141.234268 87.984436,140.936111 
	C87.984444,140.936111 87.997284,140.997864 88.224274,140.911652 
	C88.623817,140.522964 88.796371,140.220505 88.968925,139.918045 
	C88.968933,139.918045 88.988174,139.987122 89.210953,139.901428 
	C89.613380,139.517303 89.793022,139.218872 89.972672,138.920425 
	C89.972664,138.920425 89.988632,138.989304 90.213013,138.903488 
	C90.613770,138.517120 90.790154,138.216553 90.966522,137.915985 
	C90.966522,137.915985 90.986816,137.985779 91.207520,137.892960 
	C91.600494,137.496780 91.772758,137.193420 91.945038,136.890076 
	C91.945038,136.890076 91.972298,136.966721 92.218445,136.856201 
	C92.630180,136.388016 92.795753,136.030365 92.961334,135.672714 
	C93.428993,135.151978 93.896652,134.631241 94.656998,134.290283 
	C97.063477,133.107407 99.424217,132.009079 101.232567,130.319550 
	C103.872726,127.852829 106.068367,124.917068 108.537750,122.259544 
	C115.448494,114.822296 122.421295,107.442558 129.294373,99.970917 
	C129.724152,99.503708 129.506500,98.440926 129.590057,97.655228 
	C129.590057,97.655228 129.703110,97.708092 130.049042,97.760391 
	C135.264954,93.526085 140.134933,89.239487 145.190460,84.789574 
	C142.056961,81.788757 139.704544,81.006569 136.463074,82.907425 
	C116.666847,82.938591 97.334465,82.959541 77.812531,82.794373 
	C71.788345,85.819077 75.876358,91.331329 75.216133,95.529175 
	C73.880386,104.021988 74.995071,112.888962 74.839500,121.597008 
	C74.824829,122.418259 72.985176,123.875076 71.961830,123.903053 
	C64.640556,124.103172 57.307365,124.124306 49.988918,123.877495 
	C48.960709,123.842812 47.139748,122.052307 47.124462,121.052551 
	C46.911507,107.121986 46.937664,93.187584 46.931099,79.254112 
	C46.927910,72.487671 47.205517,65.711639 46.921017,58.958263 
	C46.742168,54.712803 47.440113,52.830330 52.467262,52.857239 
	C93.596100,53.077385 134.726624,52.980972 175.856628,52.984520 
	C177.021362,52.984619 178.195496,52.940094 179.349136,53.065079 
	C183.232742,53.485828 185.919342,54.820511 185.106934,59.615559 
	C184.789001,61.492046 185.451660,63.537476 185.684326,65.503998 
	C186.957031,76.260521 186.696335,86.122925 176.120331,93.203941 
	C171.085739,96.574776 167.382370,101.991684 163.254059,106.639900 
	C160.018234,110.283264 157.056305,114.169884 153.580933,117.965584 
	C148.778137,117.961739 149.030151,121.091553 149.070419,124.078278 
	C149.070419,124.078278 148.998856,124.002998 148.652298,124.005035 
	C147.084961,124.603607 145.589325,124.929382 144.689835,125.842438 
	C140.215057,130.384750 135.796051,134.992706 131.586746,139.779221 
	C130.349457,141.186172 129.863190,143.253540 129.032715,145.018250 
	C129.032715,145.018250 129.004150,145.004272 128.644958,144.995178 
	C127.642906,145.124573 126.794548,145.047089 126.388000,145.433929 
	C120.203049,151.319138 113.960693,157.151352 107.963371,163.224655 
	C99.784683,171.506927 91.839340,180.019196 83.710609,188.351547 
	C81.759277,190.351761 79.210281,191.800385 77.403862,193.904282 
	C72.970055,199.068192 68.905266,204.549408 64.457855,209.700806 
	C63.549744,210.752670 61.616562,210.919556 59.992424,211.558731 
	C59.497810,212.673889 59.106750,214.465164 58.068165,215.720871 
	C55.326900,219.035202 52.287064,222.101242 49.401325,225.297943 
	C47.768307,227.106934 46.374386,226.914673 45.083893,224.475494 
	C45.062759,212.680618 45.051407,201.348251 45.201160,189.921158 
	C45.254112,189.547256 45.145958,189.268066 45.022163,188.988434 
	C45.006523,188.987991 45.022491,188.960968 45.031719,188.588730 
	C45.010643,187.472473 44.980343,186.728455 44.950039,185.984436 
	C44.950039,185.984436 44.987297,185.990051 45.222843,185.896271 
	C45.622456,185.513184 45.786522,185.223862 45.950584,184.934525 
	C45.950581,184.934525 46.002586,184.992584 46.219032,184.894150 
	C46.607643,184.503525 46.779804,184.211319 46.951965,183.919113 
	C46.951962,183.919113 46.872963,183.960632 47.206619,183.922852 
	C47.950161,183.175400 48.360046,182.465729 48.769928,181.756058 
	C48.769928,181.756058 48.970448,181.995789 49.229130,181.931030 
	C50.698593,180.296524 51.909374,178.726776 53.120163,177.157028 
	C53.120163,177.157028 53.049263,177.050003 53.409134,177.041595 
	C54.084839,176.579056 54.400673,176.124954 54.716507,175.670837 
	C54.716507,175.670837 54.962013,175.818451 55.122833,175.757721 
	C55.419456,175.362595 55.555267,175.028168 55.691074,174.693756 
	C55.691074,174.693756 56.011177,174.969482 56.143539,174.827682 
	C56.388760,174.346237 56.501621,174.006607 56.614479,173.666962 
	C56.614475,173.666962 56.837379,173.860321 57.038414,173.756622 
	C57.358002,173.320175 57.476555,172.987427 57.595108,172.654678 
	C57.595112,172.654678 58.013206,172.857040 58.132797,172.746475 
	C58.511547,172.092133 58.770706,171.548370 59.029865,171.004593 
	C59.029865,171.004593 59.010002,171.009720 59.344215,170.983643 
	C60.130817,170.265533 60.583210,169.573486 61.035599,168.881439 
	C61.103645,168.601151 61.254711,168.376755 61.947548,168.037506 
	C62.597614,167.555771 62.788929,167.244781 62.980244,166.933807 
	C62.980247,166.933807 62.996048,166.996170 63.222752,166.911896 
	C63.626637,166.528458 63.803818,166.229294 63.981003,165.930130 
	C63.981003,165.930130 63.994720,165.994736 64.220390,165.910431 
	C64.621452,165.525360 64.796852,165.224594 64.972252,164.923828 
	C64.972252,164.923828 64.987663,164.994980 65.346710,165.000580 
	C66.788788,163.588547 67.871826,162.170898 68.954865,160.753250 
	C69.012199,160.487259 69.150116,160.273193 69.835846,159.961243 
	C70.506348,159.487289 70.709633,159.163116 70.912918,158.838943 
	C70.912910,158.838943 70.925072,158.928802 71.153839,158.851608 
	C71.552284,158.457916 71.721954,158.141434 71.891624,157.824936 
	C71.891624,157.824936 71.897202,157.930481 72.212112,157.907883 
	C72.946777,157.178619 73.366547,156.471954 73.786301,155.765274 
	C73.786301,155.765274 73.884377,155.828339 74.125084,155.755737 
	C74.519493,155.319199 74.673195,154.955292 74.826889,154.591370 
	C74.826889,154.591370 74.964256,154.268799 75.388504,154.121887 
	C76.120277,153.547501 76.427788,153.120056 76.735298,152.692596 
	C76.735298,152.692596 76.861572,152.854126 77.076416,152.765091 
	C77.546242,152.162308 77.801224,151.648560 78.056213,151.134811 
z"/>
<path fill="#4883E1" opacity="1.000000" stroke="none" 
	d="
M153.972687,117.948410 
	C157.056305,114.169884 160.018234,110.283264 163.254059,106.639900 
	C167.382370,101.991684 171.085739,96.574776 176.120331,93.203941 
	C186.696335,86.122925 186.957031,76.260521 185.684326,65.503998 
	C185.451660,63.537476 184.789001,61.492046 185.106934,59.615559 
	C185.919342,54.820511 183.232742,53.485828 179.349136,53.065079 
	C178.195496,52.940094 177.021362,52.984619 175.856628,52.984520 
	C134.726624,52.980972 93.596100,53.077385 52.467262,52.857239 
	C47.440113,52.830330 46.742168,54.712803 46.921017,58.958263 
	C47.205517,65.711639 46.927910,72.487671 46.931099,79.254112 
	C46.937664,93.187584 46.911507,107.121986 47.124462,121.052551 
	C47.139748,122.052307 48.960709,123.842812 49.988918,123.877495 
	C57.307365,124.124306 64.640556,124.103172 71.961830,123.903053 
	C72.985176,123.875076 74.824829,122.418259 74.839500,121.597008 
	C74.995071,112.888962 73.880386,104.021988 75.216133,95.529175 
	C75.876358,91.331329 71.788345,85.819077 77.815300,83.042923 
	C78.007637,83.477592 78.034035,83.973625 78.034035,83.973625 
	C77.851715,95.611557 77.662971,107.249397 77.492302,118.887497 
	C77.456459,121.331520 77.487091,123.776512 77.487091,126.702248 
	C66.806313,126.702248 56.851357,126.761269 46.900269,126.592331 
	C46.087296,126.578529 45.053967,125.126938 44.578922,124.126869 
	C44.189472,123.306992 44.472088,122.164604 44.468643,121.165138 
	C44.395115,99.839607 44.322823,78.514084 44.251888,57.188549 
	C44.245880,55.382179 44.251091,53.575764 44.251091,51.368782 
	C92.076286,51.368782 139.456558,51.368782 187.956802,51.368782 
	C187.956802,61.783039 188.046951,72.224579 187.850143,82.660698 
	C187.823608,84.068321 186.593140,85.677422 185.514938,86.806175 
	C175.275452,97.525955 164.948349,108.162033 154.327972,118.682922 
	C153.997223,118.345238 153.984955,118.146828 153.972687,117.948410 
z"/>
<path fill="#4D83DA" opacity="1.000000" stroke="none" 
	d="
M187.971741,229.576477 
	C187.968109,231.153595 187.968109,232.287338 187.968109,235.024460 
	C165.023697,213.251923 143.049286,192.399857 120.565491,171.064407 
	C128.068665,163.119171 135.417862,155.336990 143.168716,147.129486 
	C148.793884,152.418137 154.084213,157.371841 159.352081,162.349304 
	C167.580276,170.123901 175.690369,178.027847 184.067947,185.637634 
	C187.039841,188.337189 188.171997,191.168808 188.079880,195.168594 
	C187.819199,206.484894 187.980377,217.810898 187.971741,229.576477 
M157.482056,203.014008 
	C166.392639,211.517990 175.303223,220.021988 184.966446,229.244247 
	C185.404678,226.522690 185.943405,224.670044 185.961472,222.812317 
	C186.050415,213.666458 186.271225,204.506531 185.840881,195.380066 
	C185.706940,192.539597 184.325180,189.183151 182.390198,187.115005 
	C177.461044,181.846664 171.981995,177.075882 166.555756,172.295868 
	C163.277237,169.407791 159.452072,167.120514 156.296539,164.117706 
	C152.510147,160.514542 149.272079,156.339157 145.553680,152.656845 
	C144.895096,152.004654 142.501144,151.987183 141.837051,152.632355 
	C135.657486,158.635788 129.681076,164.848343 123.787567,170.855728 
	C135.561035,182.083511 146.270905,192.296997 157.482056,203.014008 
z"/>
<path fill="#4481E1" opacity="1.000000" stroke="none" 
	d="
M45.093670,224.938004 
	C46.374386,226.914673 47.768307,227.106934 49.401325,225.297943 
	C52.287064,222.101242 55.326900,219.035202 58.068165,215.720871 
	C59.106750,214.465164 59.497810,212.673889 59.992424,211.558731 
	C61.616562,210.919556 63.549744,210.752670 64.457855,209.700806 
	C68.905266,204.549408 72.970055,199.068192 77.403862,193.904282 
	C79.210281,191.800385 81.759277,190.351761 83.710609,188.351547 
	C91.839340,180.019196 99.784683,171.506927 107.963371,163.224655 
	C113.960693,157.151352 120.203049,151.319138 126.388000,145.433929 
	C126.794548,145.047089 127.642906,145.124573 128.652008,145.009430 
	C114.453018,160.341599 99.925957,175.687012 85.310829,190.948059 
	C72.871193,203.937500 60.330143,216.829803 47.161079,229.842834 
	C46.023357,228.259735 45.558514,226.598862 45.093670,224.938004 
z"/>
<path fill="#4883E1" opacity="1.000000" stroke="none" 
	d="
M129.291519,97.776131 
	C129.506500,98.440926 129.724152,99.503708 129.294373,99.970917 
	C122.421295,107.442558 115.448494,114.822296 108.537750,122.259544 
	C106.068367,124.917068 103.872726,127.852829 101.232567,130.319550 
	C99.424217,132.009079 97.063477,133.107407 94.895035,134.173615 
	C106.224594,121.883820 117.608788,109.890427 129.291519,97.776131 
z"/>
<path fill="#4481E1" opacity="1.000000" stroke="none" 
	d="
M129.348160,144.908630 
	C129.863190,143.253540 130.349457,141.186172 131.586746,139.779221 
	C135.796051,134.992706 140.215057,130.384750 144.689835,125.842438 
	C145.589325,124.929382 147.084961,124.603607 148.691650,124.038528 
	C142.606232,130.979660 136.134918,137.889328 129.348160,144.908630 
z"/>
<path fill="#517BBC" opacity="1.000000" stroke="none" 
	d="
M78.497658,84.012436 
	C78.034035,83.973625 78.007637,83.477592 78.004868,83.229042 
	C97.334465,82.959541 116.666847,82.938591 136.799591,82.945847 
	C138.379974,83.287758 139.159958,83.601471 139.939957,83.915176 
	C119.613731,83.960533 99.287506,84.005890 78.497658,84.012436 
z"/>
<path fill="#4883E1" opacity="1.000000" stroke="none" 
	d="
M140.238968,84.072006 
	C139.159958,83.601471 138.379974,83.287758 137.263458,82.935623 
	C139.704544,81.006569 142.056961,81.788757 145.190460,84.789574 
	C140.134933,89.239487 135.264954,93.526085 130.022934,97.703712 
	C132.547119,94.433594 135.506271,91.326706 138.304733,88.081245 
	C139.257248,86.976555 139.805176,85.522987 140.238968,84.072006 
z"/>
<path fill="#6387C5" opacity="1.000000" stroke="none" 
	d="
M45.083893,224.475494 
	C45.558514,226.598862 46.023357,228.259735 46.878540,230.003723 
	C46.503490,230.926636 45.738102,231.766434 44.038551,233.631195 
	C44.038551,218.280350 44.038551,204.094894 44.326614,189.442749 
	C44.614677,188.976059 45.022491,188.960968 45.022491,188.960968 
	C45.022491,188.960968 45.006523,188.987991 45.007866,189.245239 
	C45.019485,189.673630 45.029770,189.844742 45.040054,190.015869 
	C45.051407,201.348251 45.062759,212.680618 45.083893,224.475494 
z"/>
<path fill="#4481E1" opacity="1.000000" stroke="none" 
	d="
M153.580917,117.965576 
	C153.984955,118.146828 153.997223,118.345238 154.030518,118.841148 
	C152.597961,120.718002 151.144379,122.297356 149.380615,123.977493 
	C149.030151,121.091553 148.778137,117.961739 153.580917,117.965576 
z"/>
<path fill="#6387C5" opacity="1.000000" stroke="none" 
	d="
M52.815979,177.273392 
	C51.909374,178.726776 50.698593,180.296524 49.120522,181.818542 
	C50.006092,180.310440 51.258945,178.850098 52.815979,177.273392 
z"/>
<path fill="#6387C5" opacity="1.000000" stroke="none" 
	d="
M68.650604,160.891235 
	C67.871826,162.170898 66.788788,163.588547 65.316643,164.980072 
	C66.067139,163.645706 67.206741,162.337463 68.650604,160.891235 
z"/>
<path fill="#6387C5" opacity="1.000000" stroke="none" 
	d="
M83.704178,145.076431 
	C83.147995,146.256897 82.283157,147.537537 81.044312,148.707520 
	C81.578705,147.456772 82.487114,146.316681 83.704178,145.076431 
z"/>
<path fill="#6387C5" opacity="1.000000" stroke="none" 
	d="
M48.481709,181.852905 
	C48.360046,182.465729 47.950161,183.175400 47.185783,183.883392 
	C47.285358,183.237732 47.739422,182.593750 48.481709,181.852905 
z"/>
<path fill="#6387C5" opacity="1.000000" stroke="none" 
	d="
M73.495255,155.855621 
	C73.366547,156.471954 72.946777,157.178619 72.171783,157.873718 
	C72.279099,157.223434 72.741646,156.584702 73.495255,155.855621 
z"/>
<path fill="#4481E1" opacity="1.000000" stroke="none" 
	d="
M45.031719,188.588730 
	C45.022491,188.960968 44.614677,188.976059 44.410774,188.979874 
	C44.258503,188.096786 44.310131,187.209869 44.655899,186.153702 
	C44.980343,186.728455 45.010643,187.472473 45.031719,188.588730 
z"/>
<path fill="#6387C5" opacity="1.000000" stroke="none" 
	d="
M60.750420,168.998764 
	C60.583210,169.573486 60.130817,170.265533 59.341782,170.993622 
	C59.491840,170.391785 59.978542,169.753937 60.750420,168.998764 
z"/>
<path fill="#6387C5" opacity="1.000000" stroke="none" 
	d="
M77.787941,151.225922 
	C77.801224,151.648560 77.546242,152.162308 76.989639,152.710510 
	C76.965240,152.268997 77.242455,151.793030 77.787941,151.225922 
z"/>
<path fill="#6387C5" opacity="1.000000" stroke="none" 
	d="
M76.473488,152.763412 
	C76.427788,153.120056 76.120277,153.547501 75.526146,154.013336 
	C75.563583,153.645874 75.887634,153.240051 76.473488,152.763412 
z"/>
<path fill="#6387C5" opacity="1.000000" stroke="none" 
	d="
M58.760506,171.108017 
	C58.770706,171.548370 58.511547,172.092133 57.928734,172.634735 
	C57.900436,172.159531 58.195793,171.685486 58.760506,171.108017 
z"/>
<path fill="#6387C5" opacity="1.000000" stroke="none" 
	d="
M54.440746,175.735458 
	C54.400673,176.124954 54.084839,176.579056 53.463295,177.076035 
	C53.493389,176.679291 53.829185,176.239685 54.440746,175.735458 
z"/>
<path fill="#6387C5" opacity="1.000000" stroke="none" 
	d="
M87.719971,141.004059 
	C87.808121,141.234268 87.631798,141.532410 87.199982,141.910736 
	C87.114838,141.684601 87.285172,141.378296 87.719971,141.004059 
z"/>
<path fill="#6387C5" opacity="1.000000" stroke="none" 
	d="
M92.699966,135.811157 
	C92.795753,136.030365 92.630180,136.388016 92.178421,136.848999 
	C92.074364,136.618088 92.256477,136.283844 92.699966,135.811157 
z"/>
<path fill="#6387C5" opacity="1.000000" stroke="none" 
	d="
M91.676086,136.955566 
	C91.772758,137.193420 91.600494,137.496780 91.172005,137.885254 
	C91.079567,137.653946 91.243355,137.337494 91.676086,136.955566 
z"/>
<path fill="#4481E1" opacity="1.000000" stroke="none" 
	d="
M45.681778,184.978470 
	C45.786522,185.223862 45.622456,185.513184 45.213242,185.880066 
	C45.116386,185.645889 45.264675,185.334152 45.681778,184.978470 
z"/>
<path fill="#4481E1" opacity="1.000000" stroke="none" 
	d="
M46.685749,183.975922 
	C46.779804,184.211319 46.607643,184.503525 46.185635,184.874313 
	C46.097038,184.646194 46.258286,184.339478 46.685749,183.975922 
z"/>
<path fill="#6387C5" opacity="1.000000" stroke="none" 
	d="
M90.703247,137.986664 
	C90.790154,138.216553 90.613770,138.517120 90.178696,138.894989 
	C90.093323,138.667313 90.266647,138.362335 90.703247,137.986664 
z"/>
<path fill="#6387C5" opacity="1.000000" stroke="none" 
	d="
M89.704727,138.985184 
	C89.793022,139.218872 89.613380,139.517303 89.175934,139.893707 
	C89.091026,139.664429 89.263901,139.357193 89.704727,138.985184 
z"/>
<path fill="#6387C5" opacity="1.000000" stroke="none" 
	d="
M88.704941,139.987122 
	C88.796371,140.220505 88.623817,140.522964 88.193413,140.905151 
	C88.104027,140.675339 88.272491,140.365768 88.704941,139.987122 
z"/>
<path fill="#6387C5" opacity="1.000000" stroke="none" 
	d="
M55.438972,174.763611 
	C55.555267,175.028168 55.419456,175.362595 54.989388,175.705688 
	C54.859039,175.420731 55.022957,175.127106 55.438972,174.763611 
z"/>
<path fill="#6387C5" opacity="1.000000" stroke="none" 
	d="
M56.376892,173.751328 
	C56.501621,174.006607 56.388760,174.346237 55.981213,174.693848 
	C55.837452,174.413101 55.988373,174.124405 56.376892,173.751328 
z"/>
<path fill="#6387C5" opacity="1.000000" stroke="none" 
	d="
M57.364052,172.733643 
	C57.476555,172.987427 57.358002,173.320175 56.946274,173.641388 
	C56.677101,173.277573 56.837067,173.005157 57.364052,172.733643 
z"/>
<path fill="#6387C5" opacity="1.000000" stroke="none" 
	d="
M79.480453,149.794022 
	C79.556953,150.064728 79.344391,150.413010 78.804703,150.787201 
	C78.715523,150.499268 78.953461,150.185425 79.480453,149.794022 
z"/>
<path fill="#6387C5" opacity="1.000000" stroke="none" 
	d="
M86.727753,142.013977 
	C86.814522,142.243286 86.640099,142.542862 86.207535,142.916412 
	C86.121780,142.688339 86.294174,142.386292 86.727753,142.013977 
z"/>
<path fill="#6387C5" opacity="1.000000" stroke="none" 
	d="
M62.711895,167.016388 
	C62.788929,167.244781 62.597614,167.555771 62.134171,167.949478 
	C62.055874,167.721115 62.249710,167.410034 62.711895,167.016388 
z"/>
<path fill="#6387C5" opacity="1.000000" stroke="none" 
	d="
M63.713017,165.992798 
	C63.803818,166.229294 63.626637,166.528458 63.191448,166.904510 
	C63.103973,166.672760 63.274502,166.364120 63.713017,165.992798 
z"/>
<path fill="#6387C5" opacity="1.000000" stroke="none" 
	d="
M64.706055,164.990387 
	C64.796852,165.224594 64.621452,165.525360 64.188019,165.903900 
	C64.099930,165.673431 64.269890,165.365189 64.706055,164.990387 
z"/>
<path fill="#6387C5" opacity="1.000000" stroke="none" 
	d="
M85.730362,143.023468 
	C85.817535,143.247147 85.645203,143.544525 85.220047,143.924591 
	C85.135101,143.703903 85.302979,143.400543 85.730362,143.023468 
z"/>
<path fill="#6387C5" opacity="1.000000" stroke="none" 
	d="
M70.634827,158.920410 
	C70.709633,159.163116 70.506348,159.487289 70.011406,159.877869 
	C69.932076,159.630157 70.144402,159.316025 70.634827,158.920410 
z"/>
<path fill="#6387C5" opacity="1.000000" stroke="none" 
	d="
M71.627792,157.902985 
	C71.721954,158.141434 71.552284,158.457916 71.109634,158.841568 
	C71.012428,158.599487 71.188194,158.290268 71.627792,157.902985 
z"/>
<path fill="#6387C5" opacity="1.000000" stroke="none" 
	d="
M84.754860,144.051071 
	C84.831299,144.263382 84.658096,144.561920 84.229042,144.937897 
	C84.150536,144.722641 84.327881,144.429977 84.754860,144.051071 
z"/>
<path fill="#6387C5" opacity="1.000000" stroke="none" 
	d="
M74.565262,154.719757 
	C74.673195,154.955292 74.519493,155.319199 74.067764,155.766388 
	C73.947708,155.515808 74.125671,155.181976 74.565262,154.719757 
z"/>
<path fill="#6387C5" opacity="1.000000" stroke="none" 
	d="
M80.415512,148.764801 
	C80.542946,149.034027 80.417870,149.370728 79.998901,149.723755 
	C79.857681,149.437485 80.010345,149.134888 80.415512,148.764801 
z"/>
<path fill="#4481E1" opacity="1.000000" stroke="none" 
	d="
M45.201160,189.921158 
	C45.029770,189.844742 45.019485,189.673630 45.023506,189.245697 
	C45.145958,189.268066 45.254112,189.547256 45.201160,189.921158 
z"/>
<path fill="#2E7FFD" opacity="1.000000" stroke="none" 
	d="
M157.231415,202.762238 
	C146.270905,192.296997 135.561035,182.083511 123.787567,170.855728 
	C129.681076,164.848343 135.657486,158.635788 141.837051,152.632355 
	C142.501144,151.987183 144.895096,152.004654 145.553680,152.656845 
	C149.272079,156.339157 152.510147,160.514542 156.296539,164.117706 
	C159.452072,167.120514 163.277237,169.407791 166.555756,172.295868 
	C171.981995,177.075882 177.461044,181.846664 182.390198,187.115005 
	C184.325180,189.183151 185.706940,192.539597 185.840881,195.380066 
	C186.271225,204.506531 186.050415,213.666458 185.961472,222.812317 
	C185.943405,224.670044 185.404678,226.522690 184.966446,229.244247 
	C175.303223,220.021988 166.392639,211.517990 157.231415,202.762238 
z"/>
</svg>